<?xml version="1.0" encoding="UTF-8"?>
<svg id="Layer_6" data-name="Layer 6" xmlns="http://www.w3.org/2000/svg" viewBox="0 0 467.59 65.94">
  <defs>
    <style>
      .cls-1 {
        fill: #256fff;
      }
    </style>
  </defs>
  <g>
    <g>
      <path class="cls-1" d="M425.63,5.98l-.95,4.42c-2.65,12.33-12.29,21.97-24.62,24.62l-4.42.95,4.56.98c12.25,2.63,21.82,12.19,24.45,24.44l.98,4.56.99-4.6c2.62-12.23,12.18-21.78,24.4-24.4l4.6-.99-4.48-.96c-12.3-2.64-21.91-12.25-24.55-24.55l-.96-4.47ZM426.59,10.45"/>
      <path class="cls-1" d="M467.43,26.31c-1.43-3.19-12.17-1.85-26.34,2.8l.11.25c10.42-3.06,18.14-3.66,19.23-1.07,1.59,3.75-11.3,12.79-28.79,20.19,0,0-.02,0-.02,0-.15.06-.29.13-.44.19-.07.03-.14.06-.21.09-1.01.43-2.01.84-2.99,1.23,0,0,0,0,0,0-1.14.45-2.26.86-3.36,1.25-14.42,5.3-26.14,7.06-27.51,3.82-.98-2.31,3.55-6.63,11.25-11.33l-.2-.29c-12.15,6.75-19.7,13.16-18.33,16.22,1.56,3.47,14.09,1.58,30.07-4.07h0s.03-.01.05-.02c.89-.32,1.8-.65,2.71-.98.12-.04.23-.09.35-.13.13-.05.26-.09.39-.14,0,0,0,0,0,0,1.06-.4,2.12-.81,3.2-1.24,0,0,0,0,0,0,.49-.19.98-.4,1.48-.6.37-.15.74-.3,1.11-.45.98-.4,1.96-.82,2.96-1.24.41-.18.82-.35,1.23-.53.11-.05.22-.1.33-.15.32-.14.64-.28.95-.42.1-.04.2-.09.3-.13.4-.18.8-.36,1.2-.54.05-.02.1-.05.15-.07.35-.16.7-.32,1.05-.48.1-.05.2-.1.31-.14.33-.15.66-.31.99-.46.06-.03.13-.06.19-.09.39-.19.78-.37,1.17-.56.06-.03.13-.06.19-.09.33-.16.65-.31.97-.47.09-.04.18-.09.26-.13.37-.18.74-.36,1.1-.55,0,0,.01,0,.02,0,.39-.19.77-.39,1.15-.58.06-.03.12-.06.18-.09.32-.16.64-.33.96-.49.06-.03.12-.06.19-.1.74-.38,1.47-.77,2.18-1.15.05-.03.1-.06.15-.08.32-.18.65-.35.97-.53.03-.02.07-.04.1-.05.71-.39,1.4-.78,2.08-1.16.04-.02.09-.05.13-.07.33-.19.65-.38.97-.56,0,0,0,0,0,0,10.66-6.21,17.08-11.94,15.81-14.79Z"/>
      <path class="cls-1" d="M445.15,0l-.33,1.54c-.92,4.3-4.28,7.67-8.59,8.59l-1.54.33,1.59.34c4.27.92,7.61,4.26,8.53,8.53l.34,1.59.34-1.6c.91-4.26,4.25-7.6,8.51-8.51l1.6-.34-1.56-.33c-4.29-.92-7.64-4.27-8.56-8.56l-.34-1.56ZM445.48,1.56"/>
    </g>
    <g>
      <rect x="362.09" y="8.99" width="9.59" height="53.95"/>
      <rect x="315.12" y="42.03" width="29.58" height="9.59"/>
      <polygon points="313.81 62.94 329.9 18.71 346 62.94 355.57 62.94 335.94 8.99 323.87 8.99 304.24 62.94 313.81 62.94"/>
    </g>
  </g>
  <g>
    <polygon points="30.99 8.99 40.6 8.99 40.6 62.93 30.99 62.93 30.99 40.46 9.61 40.46 9.61 62.93 0 62.93 0 8.99 9.61 8.99 9.61 30.85 30.99 30.85 30.99 8.99"/>
    <polygon points="152.89 42.65 129.56 8.99 121.9 8.99 121.9 62.93 131.51 62.93 131.51 29.1 154.95 62.93 162.5 62.93 162.5 8.99 152.89 8.99 152.89 42.65"/>
    <path d="M206.74,8.47c-18.1-2.28-33.33,12.94-31.05,31.04,1.55,12.34,11.51,22.3,23.85,23.85,18.11,2.28,33.33-12.94,31.05-31.05-1.55-12.33-11.51-22.3-23.85-23.85ZM206.2,53.74c-12.37,2.03-22.91-8.51-20.88-20.88,1.23-7.49,7.27-13.53,14.76-14.76,12.36-2.03,22.9,8.51,20.88,20.88-1.23,7.49-7.27,13.53-14.76,14.76Z"/>
    <path d="M269.51,43.27c7.08-2.26,12.22-8.89,12.22-16.72,0-9.68-7.83-17.53-17.5-17.55h0s-20.43,0-20.43,0v53.95h9.61v-24.01l20.02,24.01h12.49l-16.4-19.67ZM253.4,34.49v-15.89h10.4c3.82,0,7.33,2.56,8.08,6.3,1.02,5.11-2.85,9.59-7.78,9.59h-10.7Z"/>
    <path d="M84.85,8.47c-18.1-2.28-33.33,12.94-31.05,31.04,1.55,12.34,11.51,22.3,23.85,23.85,18.11,2.29,33.34-12.94,31.05-31.05-1.56-12.33-11.52-22.29-23.85-23.85ZM84.31,53.74c-12.37,2.03-22.91-8.51-20.88-20.88,1.23-7.49,7.27-13.53,14.76-14.75,12.37-2.03,22.9,8.51,20.87,20.88-1.23,7.49-7.27,13.53-14.76,14.76Z"/>
  </g>
</svg>